<?xml version="1.0" encoding="UTF-8"?>
<svg id="logo-xulbux-mono" xmlns="http://www.w3.org/2000/svg" version="1.1" viewBox="0 0 512 512">
  <metadata>
    <rdf:RDF xmlns:rdf="http://www.w3.org/1999/02/22-rdf-syntax-ns#"
             xmlns:dc="http://purl.org/dc/elements/1.1/"
             xmlns:cc="http://creativecommons.org/ns#">
      <cc:Work rdf:about="">
        <dc:title>XulbuX Logo Mono</dc:title>
        <dc:description>Official single-color logo for XulbuX.</dc:description>
        <dc:creator>
          <cc:Agent>
            <dc:title>XulbuX</dc:title>
          </cc:Agent>
        </dc:creator>
        <dc:date>06/07/2026</dc:date>
        <dc:format>image/svg+xml</dc:format>
        <dc:type rdf:resource="http://purl.org/dc/dcmitype/StillImage"/>
        <dc:rights>
          <cc:Agent>
            <dc:title>Copyright (c) 2026 XulbuX. All rights reserved.</dc:title>
          </cc:Agent>
        </dc:rights>
      </cc:Work>
    </rdf:RDF>
  </metadata>
  <polygon fill="currentColor" points="0 11.16 94.07 11.16 238.12 225.02 169.41 216.08 0 11.16"/>
  <polygon fill="currentColor" points="124.91 11.1 168.28 11.71 244.37 100.01 217.55 143.22 124.91 11.1"/>
  <polygon fill="currentColor" points="238.12 252.66 168.28 241.96 213.94 274.98 238.12 252.66"/>
  <polygon fill="currentColor" points="291.67 334.49 247.45 338.87 230.97 293.73 251.53 276.3 291.67 334.49"/>
  <polygon fill="currentColor" points="266.8 247.43 345.49 258.79 512 452.08 408.36 452.08 266.8 247.43"/>
  <polygon fill="currentColor" points="487.01 477.17 470.87 500.9 328.31 495.6 299.48 476.01 487.01 477.17"/>
  <polygon fill="currentColor" points="254.97 362.71 304.32 357.83 369.52 452.08 328.98 452.08 254.97 362.71"/>
  <polygon fill="currentColor" points="153.01 434.91 129.13 478.22 288.99 452.08 274.47 435.35 153.01 434.91"/>
  <polygon fill="currentColor" points="0 486.21 82.72 500.9 199.65 297.43 152.2 262.59 0 486.21"/>
  <polygon fill="currentColor" points="167.81 408.94 206.41 408.94 226.26 367.05 213.51 326.07 167.81 408.94"/>
  <polygon fill="currentColor" points="234.11 167.77 262.66 208.83 421.45 11.71 333.78 11.71 234.11 167.77"/>
  <polygon fill="currentColor" points="512 11.71 341.48 231.23 285.65 223.36 456.83 11.71 512 11.71"/>
</svg>