<?xml version="1.0" encoding="UTF-8"?>
<svg id="logo-xulbux-mono" xmlns="http://www.w3.org/2000/svg" version="1.1" viewBox="0 0 512 512">
  <metadata>
    <rdf:RDF xmlns:rdf="http://www.w3.org/1999/02/22-rdf-syntax-ns#"
             xmlns:dc="http://purl.org/dc/elements/1.1/"
             xmlns:cc="http://creativecommons.org/ns#">
      <cc:Work rdf:about="">
        <dc:title>XulbuX Logo Mono</dc:title>
        <dc:description>Official single-color logo for XulbuX.</dc:description>
        <dc:creator>
          <cc:Agent>
            <dc:title>XulbuX</dc:title>
          </cc:Agent>
        </dc:creator>
        <dc:date>01/01/2026</dc:date>
        <dc:format>image/svg+xml</dc:format>
        <dc:type rdf:resource="http://purl.org/dc/dcmitype/StillImage"/>
        <dc:rights>
          <cc:Agent>
            <dc:title>Copyright (c) 2026 XulbuX. All rights reserved.</dc:title>
          </cc:Agent>
        </dc:rights>
      </cc:Work>
    </rdf:RDF>
  </metadata>
  <polygon fill="currentColor" points="0 9.14 74.97 9.5 232.21 242.96 165.21 234.24 0 9.14"/>
  <polyline fill="currentColor" points="121.81 34.34 167.99 34.1 241.31 126.05 212.15 163.19"/>
  <polyline fill="currentColor" points="232.21 269.91 164.11 259.48 208.63 291.68"/>
  <polygon fill="currentColor" points="284.44 349.71 241.31 353.98 225.24 309.96 245.29 292.97 284.44 349.71"/>
  <polygon fill="currentColor" points="248.65 377.23 296.77 372.47 360.35 464.39 320.82 464.39 248.65 377.23"/>
  <polygon fill="currentColor" points="260.18 264.81 336.92 275.89 499.3 464.39 398.23 464.39 260.18 264.81"/>
  <polygon fill="currentColor" points="474.93 488.85 459.19 512 320.17 506.83 292.05 487.72 474.93 488.85"/>
  <polygon fill="currentColor" points="149.21 447.64 125.93 489.88 281.82 464.39 267.66 448.07 149.21 447.64"/>
  <polygon fill="currentColor" points="0 497.67 80.67 512 194.7 313.57 148.42 279.6 0 497.67"/>
  <polygon fill="currentColor" points="163.65 422.32 201.29 422.32 220.65 381.47 208.21 341.5 163.65 422.32"/>
  <polygon fill="currentColor" points="228.3 187.13 256.14 227.17 421.78 34.1 341.22 34.1 228.3 187.13"/>
  <polygon fill="currentColor" points="512 35.09 333.01 249.01 278.56 241.34 456.1 34.4 512 35.09"/>
</svg>