<?xml version="1.0" encoding="utf-8"?>
<svg id="icon-xulbux-profile" xmlns="http://www.w3.org/2000/svg" version="1.1" viewBox="0 0 512 512">
  <metadata>
    <rdf:RDF xmlns:rdf="http://www.w3.org/1999/02/22-rdf-syntax-ns#"
             xmlns:dc="http://purl.org/dc/elements/1.1/"
             xmlns:cc="http://creativecommons.org/ns#">
      <cc:Work rdf:about="">
        <dc:title>XulbuX Icon</dc:title>
        <dc:description>Official color icon profile picture for XulbuX.</dc:description>
        <dc:creator>
          <cc:Agent>
            <dc:title>XulbuX</dc:title>
          </cc:Agent>
        </dc:creator>
        <dc:date>01/01/2026</dc:date>
        <dc:format>image/svg+xml</dc:format>
        <dc:type rdf:resource="http://purl.org/dc/dcmitype/StillImage"/>
        <dc:rights>
          <cc:Agent>
            <dc:title>Copyright (c) 2026 XulbuX. All rights reserved.</dc:title>
          </cc:Agent>
        </dc:rights>
      </cc:Work>
    </rdf:RDF>
  </metadata>
  <rect fill="#000" width="512" height="512"/>
  <polygon fill="#6065FF" points="111.25 118.4 153.64 118.61 242.55 250.61 204.66 245.68 111.25 118.4"/>
  <polyline fill="#8760FF" points="180.13 132.65 206.24 132.52 247.69 184.51 231.21 205.51"/>
  <polyline fill="#9660FF" points="242.55 265.85 204.04 259.95 229.22 278.16"/>
  <polygon fill="#A560FF" points="272.08 310.97 247.69 313.39 238.61 288.5 249.94 278.89 272.08 310.97"/>
  <polygon fill="#B460FF" points="251.84 326.53 279.05 323.84 315 375.82 292.65 375.82 251.84 326.53"/>
  <polygon fill="#CA60FF" points="258.36 262.97 301.75 269.23 393.57 375.82 336.42 375.82 258.36 262.97"/>
  <polygon fill="#D960FF" points="379.79 389.65 370.89 402.74 292.28 399.81 276.38 389.01 379.79 389.65"/>
  <polygon fill="#F660FF" points="195.62 366.34 182.46 390.23 270.6 375.82 262.59 366.59 195.62 366.34"/>
  <polygon fill="#FF60C5" points="111.25 394.63 156.86 402.74 221.34 290.54 195.17 271.33 111.25 394.63"/>
  <polygon fill="#FF60A8" points="203.78 352.03 225.07 352.03 236.01 328.93 228.98 306.33 203.78 352.03"/>
  <polygon fill="#FF6076" points="240.34 219.05 256.08 241.68 349.74 132.52 304.19 132.52 240.34 219.05"/>
  <polygon fill="#FF6560" points="400.75 133.08 299.54 254.03 268.76 249.7 369.14 132.69 400.75 133.08"/>
</svg>