<?xml version="1.0" encoding="utf-8"?>
<svg id="icon-xulbux-pfp" xmlns="http://www.w3.org/2000/svg" version="1.1" viewBox="0 0 512 512">
  <metadata>
    <rdf:RDF xmlns:rdf="http://www.w3.org/1999/02/22-rdf-syntax-ns#"
             xmlns:dc="http://purl.org/dc/elements/1.1/"
             xmlns:cc="http://creativecommons.org/ns#">
      <cc:Work rdf:about="">
        <dc:title>XulbuX Icon</dc:title>
        <dc:description>Official color-icon profile picture for XulbuX.</dc:description>
        <dc:creator>
          <cc:Agent>
            <dc:title>XulbuX</dc:title>
          </cc:Agent>
        </dc:creator>
        <dc:date>01/01/2026</dc:date>
        <dc:format>image/svg+xml</dc:format>
        <dc:type rdf:resource="http://purl.org/dc/dcmitype/StillImage"/>
        <dc:rights>
          <cc:Agent>
            <dc:title>Copyright (c) 2026 XulbuX. All rights reserved.</dc:title>
          </cc:Agent>
        </dc:rights>
      </cc:Work>
    </rdf:RDF>
  </metadata>
  <rect fille="#000" width="512" height="512"/>
  <polygon fill="#6065FF" points="115.06 113.83 157.45 114.04 246.36 246.04 208.47 241.11 115.06 113.83"/>
  <polyline fill="#8760FF" points="183.94 128.08 210.05 127.95 251.5 179.94 235.02 200.94"/>
  <polyline fill="#9660FF" points="246.36 261.28 207.85 255.38 233.03 273.59"/>
  <polygon fill="#A560FF" points="275.89 306.4 251.5 308.82 242.42 283.93 253.75 274.32 275.89 306.4"/>
  <polygon fill="#B460FF" points="255.65 321.96 282.86 319.27 318.81 371.25 296.46 371.25 255.65 321.96"/>
  <polygon fill="#CA60FF" points="262.17 258.4 305.56 264.66 397.38 371.25 340.23 371.25 262.17 258.4"/>
  <polygon fill="#D960FF" points="383.6 385.08 374.7 398.17 296.09 395.24 280.19 384.44 383.6 385.08"/>
  <polygon fill="#F660FF" points="199.43 361.77 186.27 385.66 274.41 371.25 266.4 362.02 199.43 361.77"/>
  <polygon fill="#FF60C5" points="115.06 390.06 160.67 398.17 225.15 285.97 198.98 266.76 115.06 390.06"/>
  <polygon fill="#FF60A8" points="207.59 347.46 228.88 347.46 239.82 324.36 232.79 301.76 207.59 347.46"/>
  <polygon fill="#FF6076" points="244.15 214.48 259.89 237.11 353.55 127.95 308 127.95 244.15 214.48"/>
  <polygon fill="#FF6560" points="404.56 128.51 303.35 249.46 272.57 245.13 372.95 128.12 404.56 128.51"/>
</svg>